# xmcd
#
# Track frame offsets: 
#        150
#        22451
#        53748
#        74839
#        106608
#        126893
#        150987
#        172174
#        195436
#        227619
#        254259
#        268552
#
# Disc length: 3859 seconds
#
# Revision: 2
# Processed by: cddbd v1.5.2PL0 Copyright (c) Steve Scherf et al.
# Submitted via: ExactAudioCopy v1.0b1
#
DISCID=a40f110c
DTITLE=Buddy Guy - DJ Play My Blues [2004. JSP DSD Remastered]
DYEAR=1981
DGENRE=Blues
TTITLE0=Girl You're Nice and Clean
TTITLE1=Dedication to the Late T-Bone Walker
TTITLE2=Good News
TTITLE3=Blues at My Baby's House
TTITLE4=She Suits Me to a T
TTITLE5=D J Play My Blues
TTITLE6=Just Teasin'
TTITLE7=All You Love
TTITLE8=The Garbage Man Blues
TTITLE9=Mellow Down
TTITLE10=Comin' On
TTITLE11=Girl You're Nice and Clean [Alternative]
EXTD=YEAR: 2004
EXTT0=
EXTT1=
EXTT2=
EXTT3=
EXTT4=
EXTT5=
EXTT6=
EXTT7=
EXTT8=
EXTT9=
EXTT10=
EXTT11=
PLAYORDER=
